<?xml version="1.0" encoding="UTF-8"?><svg id="Layer_1" xmlns="http://www.w3.org/2000/svg" viewBox="0 0 745.26 142.84"><defs><style>.cls-1{fill:#222038;opacity:.62;}.cls-1,.cls-2{stroke-width:0px;}.cls-2{fill:#fff;}</style></defs><path class="cls-2" d="M299.1,0c10.81,0,17.62,6.96,17.62,18.03s-6.81,18.02-17.62,18.02h-13.19V0h13.19ZM292.11,31.36h6.88c7.24,0,11.52-5.08,11.52-13.34s-4.28-13.34-11.52-13.34h-6.88v26.69Z"/><path class="cls-2" d="M328.02.02v5.81h-6.01V.02h6.01ZM328,10.18v25.86h-5.93V10.18h5.93Z"/><path class="cls-2" d="M340.32,10.18v3.81h.5c1.08-2.53,3.28-4.61,8.54-4.06v5.01c-5.23-.65-8.81.95-8.81,7.34v13.77h-5.93V10.18h5.71Z"/><path class="cls-2" d="M364.41,9.58c7.76,0,12.14,4.71,12.14,12.49v2.48h-19.23c.1,4.71,2.63,7.81,7.06,7.81s6.06-2.45,6.43-4.53h5.21v.75c-.65,3.38-3.68,8.06-11.57,8.06s-12.82-4.63-12.82-13.54,4.98-13.52,12.77-13.52ZM370.94,20.47c-.05-3.91-2.15-6.66-6.58-6.66s-6.63,2.83-6.96,6.66h13.54Z"/><path class="cls-2" d="M387.65,36.05h-5.88V0h5.88v20.78h.5l11.39-10.59h6.48v.75l-11.24,10.36,11.44,13.99v.75h-6.33l-8.91-11.22-3.33,3.08v8.14Z"/><path class="cls-2" d="M412.99,10.18V3.17h5.86v7.01h5.66v4.08h-5.66v15.35c0,1.38.68,2.13,2.13,2.13h3.38v4.31h-4.76c-4.16,0-6.61-2.15-6.61-6.26v-15.52h-4.93v-4.08h4.93Z"/><path class="cls-2" d="M440.88,9.58c7.86,0,13.42,4.71,13.42,13.52s-5.56,13.54-13.42,13.54-13.44-4.71-13.44-13.54,5.56-13.52,13.44-13.52ZM440.88,32.24c4.46,0,7.41-3.18,7.41-9.14s-2.95-9.11-7.41-9.11-7.44,3.18-7.44,9.11,2.95,9.14,7.44,9.14Z"/><path class="cls-2" d="M465.22,10.18v3.81h.5c1.08-2.53,3.28-4.61,8.54-4.06v5.01c-5.23-.65-8.81.95-8.81,7.34v13.77h-5.93V10.18h5.71Z"/><path class="cls-2" d="M477.97,17.04c.55-4.58,4.81-7.46,11.24-7.46s10.76,2.88,10.76,9.56v10.99c0,1.23.58,1.83,1.83,1.83h1.28v4.08h-2.63c-3.2,0-4.61-1.68-4.86-3.76h-.5c-1.3,2.2-3.71,4.26-8.84,4.26-5.68,0-9.69-3.08-9.69-7.89,0-5.16,3.96-7.31,8.96-7.81l5.93-.58c1.93-.18,2.93-.73,2.93-2.43,0-2.68-1.9-4.08-5.28-4.08s-5.61,1.38-5.73,4.03h-5.41v-.75ZM487.38,32.39c3.36,0,6.99-1.93,6.99-7.36v-1.6h-.5c-.78.45-1.58.7-3.53.9l-3.33.35c-2.83.28-4.63,1.33-4.63,3.78s1.95,3.93,5.01,3.93Z"/><path class="cls-2" d="M508.57,10.18V3.17h5.86v7.01h5.66v4.08h-5.66v15.35c0,1.38.68,2.13,2.13,2.13h3.38v4.31h-4.76c-4.16,0-6.61-2.15-6.61-6.26v-15.52h-4.93v-4.08h4.93Z"/><path class="cls-2" d="M535.79,9.58c7.76,0,12.14,4.71,12.14,12.49v2.48h-19.23c.1,4.71,2.63,7.81,7.06,7.81s6.06-2.45,6.43-4.53h5.21v.75c-.65,3.38-3.68,8.06-11.57,8.06s-12.82-4.63-12.82-13.54,4.98-13.52,12.77-13.52ZM542.32,20.47c-.05-3.91-2.15-6.66-6.58-6.66s-6.63,2.83-6.96,6.66h13.54Z"/><path class="cls-2" d="M554.87,10.18V3.17h5.86v7.01h5.66v4.08h-5.66v15.35c0,1.38.68,2.13,2.13,2.13h3.38v4.31h-4.76c-4.16,0-6.61-2.15-6.61-6.26v-15.52h-4.93v-4.08h4.93Z"/><path class="cls-2" d="M582.22,10.18h4.83v-3.48c0-4.43,2.6-6.71,7.03-6.71h4.88v4.03h-3.5c-1.75,0-2.53.88-2.53,2.63v3.53h5.66v4.08h-5.66v21.78h-5.88V14.26h-4.83v-4.08Z"/><path class="cls-2" d="M613.94,9.58c7.86,0,13.42,4.71,13.42,13.52s-5.56,13.54-13.42,13.54-13.44-4.71-13.44-13.54,5.56-13.52,13.44-13.52ZM613.94,32.24c4.46,0,7.41-3.18,7.41-9.14s-2.95-9.11-7.41-9.11-7.44,3.18-7.44,9.11,2.95,9.14,7.44,9.14Z"/><path class="cls-2" d="M638.28,10.18v3.81h.5c1.08-2.53,3.28-4.61,8.54-4.06v5.01c-5.23-.65-8.81.95-8.81,7.34v13.77h-5.93V10.18h5.71Z"/><path class="cls-2" d="M295.22,57.71c6.76,0,10.79,3.03,11.34,7.41v.75h-5.41c-.2-2.85-2.43-4.08-5.78-4.08s-5.31,1.25-5.31,3.33,1.8,2.88,4.08,3.28l4.53.73c5.18.85,8.79,2.65,8.79,7.49s-3.88,8.11-11.24,8.11-11.64-3.2-12.27-7.84v-.75h5.51c.28,3.03,3.05,4.51,6.76,4.51s5.63-1.43,5.63-3.63-1.85-2.88-4.61-3.35l-4.51-.73c-4.86-.8-8.26-3.03-8.26-7.59s4.03-7.64,10.74-7.64Z"/><path class="cls-2" d="M312.27,65.12c.55-4.58,4.81-7.46,11.24-7.46s10.76,2.88,10.76,9.56v10.99c0,1.23.58,1.83,1.83,1.83h1.28v4.08h-2.63c-3.2,0-4.61-1.68-4.86-3.76h-.5c-1.3,2.2-3.71,4.26-8.84,4.26-5.68,0-9.69-3.08-9.69-7.89,0-5.16,3.96-7.31,8.96-7.81l5.93-.58c1.93-.18,2.93-.73,2.93-2.43,0-2.68-1.9-4.08-5.28-4.08s-5.61,1.38-5.73,4.03h-5.41v-.75ZM321.69,80.47c3.36,0,6.99-1.93,6.99-7.36v-1.6h-.5c-.78.45-1.58.7-3.53.9l-3.33.35c-2.83.28-4.63,1.33-4.63,3.78s1.95,3.93,5.01,3.93Z"/><path class="cls-2" d="M347.28,58.26v3.08h.5c1.05-1.68,3.05-3.63,7.54-3.63s6.46,2.15,7.24,4.16h.5c1.23-1.98,3.55-4.16,8.21-4.16s8.81,2.75,8.81,8.71v17.7h-5.88v-17.27c0-2.9-1.65-4.66-4.61-4.66-3.38,0-5.81,2.05-5.81,6.53v15.4h-5.86v-17.27c0-2.9-1.6-4.66-4.58-4.66-3.43,0-5.83,2.05-5.83,6.53v15.4h-5.88v-25.86h5.66Z"/><path class="cls-2" d="M383.52,58.26h4.83v-3.48c0-4.43,2.6-6.71,7.03-6.71h4.88v4.03h-3.5c-1.75,0-2.53.88-2.53,2.63v3.53h5.66v4.08h-5.66v21.78h-5.88v-21.78h-4.83v-4.08Z"/><path class="cls-2" d="M421.9,84.12v-3.33h-.5c-.88,1.5-3,3.88-7.94,3.88-5.73,0-9.46-3.2-9.46-9.24v-17.17h5.93v16.82c0,3.48,2.05,5.11,5.16,5.11,3.53,0,6.58-2.15,6.58-7.01v-14.92h5.93v25.86h-5.71Z"/><path class="cls-2" d="M439.93,58.26v3.33h.5c.85-1.5,3-3.88,8.04-3.88,5.81,0,9.54,3.2,9.54,9.24v17.17h-5.93v-16.82c0-3.48-2.05-5.11-5.23-5.11-3.61,0-6.68,2.15-6.68,7.01v14.92h-5.93v-25.86h5.71Z"/><path class="cls-2" d="M470.11,58.26v3.33h.5c.85-1.5,3-3.88,8.04-3.88,5.81,0,9.54,3.2,9.54,9.24v17.17h-5.93v-16.82c0-3.48-2.05-5.11-5.23-5.11-3.61,0-6.68,2.15-6.68,7.01v14.92h-5.93v-25.86h5.71Z"/><path class="cls-2" d="M504.29,57.71c6.76,0,10.79,3.03,11.34,7.41v.75h-5.41c-.2-2.85-2.43-4.08-5.78-4.08s-5.31,1.25-5.31,3.33,1.8,2.88,4.08,3.28l4.53.73c5.18.85,8.79,2.65,8.79,7.49s-3.88,8.11-11.24,8.11-11.64-3.2-12.27-7.84v-.75h5.51c.28,3.03,3.05,4.51,6.76,4.51s5.63-1.43,5.63-3.63-1.85-2.88-4.61-3.35l-4.51-.73c-4.86-.8-8.26-3.03-8.26-7.59s4.03-7.64,10.74-7.64Z"/><path class="cls-2" d="M531.16,57.71c6.76,0,10.79,3.03,11.34,7.41v.75h-5.41c-.2-2.85-2.43-4.08-5.78-4.08s-5.31,1.25-5.31,3.33,1.8,2.88,4.08,3.28l4.53.73c5.18.85,8.79,2.65,8.79,7.49s-3.88,8.11-11.24,8.11-11.64-3.2-12.27-7.84v-.75h5.51c.28,3.03,3.05,4.51,6.76,4.51s5.63-1.43,5.63-3.63-1.85-2.88-4.61-3.35l-4.51-.73c-4.86-.8-8.26-3.03-8.26-7.59s4.03-7.64,10.74-7.64Z"/><path class="cls-2" d="M554.27,48.1v5.81h-6.01v-5.81h6.01ZM554.25,58.26v25.86h-5.93v-25.86h5.93Z"/><path class="cls-2" d="M566.74,84.12h-5.88v-36.05h5.88v20.78h.5l11.39-10.59h6.48v.75l-11.24,10.36,11.44,13.99v.75h-6.33l-8.91-11.22-3.33,3.08v8.14Z"/><path class="cls-2" d="M595.42,84.12h-5.88v-36.05h5.88v20.78h.5l11.39-10.59h6.48v.75l-11.24,10.36,11.44,13.99v.75h-6.33l-8.91-11.22-3.33,3.08v8.14Z"/><path class="cls-2" d="M628.32,57.66c7.76,0,12.14,4.71,12.14,12.49v2.48h-19.23c.1,4.71,2.63,7.81,7.06,7.81s6.06-2.45,6.43-4.53h5.21v.75c-.65,3.38-3.68,8.06-11.57,8.06s-12.82-4.63-12.82-13.54,4.98-13.52,12.77-13.52ZM634.85,68.55c-.05-3.91-2.15-6.66-6.58-6.66s-6.63,2.83-6.96,6.66h13.54Z"/><path class="cls-2" d="M651.38,58.26v3.81h.5c1.08-2.53,3.28-4.61,8.54-4.06v5.01c-5.23-.65-8.81.95-8.81,7.34v13.77h-5.93v-25.86h5.71Z"/><path class="cls-2" d="M670.79,48.07v13.39h.5c.93-1.6,3.08-3.76,7.81-3.76,5.81,0,9.54,3.2,9.54,9.24v17.17h-5.93v-16.82c0-3.48-2.05-5.11-5.23-5.11-3.61,0-6.68,2.15-6.68,7.01v14.92h-5.93v-36.05h5.93Z"/><path class="cls-2" d="M706.4,57.66c7.76,0,12.14,4.71,12.14,12.49v2.48h-19.23c.1,4.71,2.63,7.81,7.06,7.81s6.06-2.45,6.43-4.53h5.21v.75c-.65,3.38-3.68,8.06-11.57,8.06s-12.82-4.63-12.82-13.54,4.98-13.52,12.77-13.52ZM712.93,68.55c-.05-3.91-2.15-6.66-6.58-6.66s-6.63,2.83-6.96,6.66h13.54Z"/><path class="cls-2" d="M725.48,58.26v-7.01h5.86v7.01h5.66v4.08h-5.66v15.35c0,1.38.68,2.13,2.13,2.13h3.38v4.31h-4.76c-4.16,0-6.61-2.15-6.61-6.26v-15.52h-4.93v-4.08h4.93Z"/><path class="cls-2" d="M297.55,105.74c7.86,0,13.42,4.71,13.42,13.52s-5.56,13.54-13.42,13.54-13.44-4.71-13.44-13.54,5.56-13.52,13.44-13.52ZM297.55,128.4c4.46,0,7.41-3.18,7.41-9.14s-2.95-9.11-7.41-9.11-7.44,3.18-7.44,9.11,2.95,9.14,7.44,9.14Z"/><path class="cls-2" d="M326.59,105.79c4.46,0,6.83,1.9,7.94,3.6h.5v-3.05h5.71v24.83c0,7.51-4.36,11.64-12.64,11.64s-12.24-4.01-12.64-8.69v-.75h5.41c.23,2.8,2.3,5.16,7.11,5.16s6.86-2.4,6.86-6.93v-3.15h-.5c-1.2,1.6-3.5,3.3-7.74,3.3-6.58,0-11.82-4.23-11.82-12.97s5.23-12.99,11.82-12.99ZM327.92,127.27c4.28,0,7.13-2.95,7.13-8.49s-2.85-8.51-7.13-8.51-7.16,2.95-7.16,8.51,2.85,8.49,7.16,8.49Z"/><path class="cls-2" d="M366.86,96.15v13.17h.5c1.08-1.63,3.41-3.53,8.01-3.53,6.58,0,11.82,4.41,11.82,13.47s-5.23,13.49-11.82,13.49c-4.61,0-7.08-1.88-8.24-3.83h-.5v3.28h-5.71v-36.05h5.93ZM373.92,128.27c4.38,0,7.28-3.15,7.28-9.01s-2.9-8.99-7.28-8.99-7.31,3.15-7.31,8.99,2.93,9.01,7.31,9.01Z"/><path class="cls-2" d="M403.77,105.74c7.76,0,12.14,4.71,12.14,12.49v2.48h-19.23c.1,4.71,2.63,7.81,7.06,7.81s6.06-2.45,6.43-4.53h5.21v.75c-.65,3.38-3.68,8.06-11.57,8.06s-12.82-4.63-12.82-13.54,4.98-13.52,12.77-13.52ZM410.31,116.63c-.05-3.91-2.15-6.66-6.58-6.66s-6.63,2.83-6.96,6.66h13.54Z"/><path class="cls-2" d="M426.83,106.34v3.81h.5c1.08-2.53,3.28-4.61,8.54-4.06v5.01c-5.23-.65-8.81.95-8.81,7.34v13.77h-5.93v-25.86h5.71Z"/><path class="cls-2" d="M450.92,105.74c7.76,0,12.14,4.71,12.14,12.49v2.48h-19.23c.1,4.71,2.63,7.81,7.06,7.81s6.06-2.45,6.43-4.53h5.21v.75c-.65,3.38-3.68,8.06-11.57,8.06s-12.82-4.63-12.82-13.54,4.98-13.52,12.77-13.52ZM457.46,116.63c-.05-3.91-2.15-6.66-6.58-6.66s-6.63,2.83-6.96,6.66h13.54Z"/><path class="cls-2" d="M487.43,132.2v-3.28h-.5c-1.15,1.95-3.63,3.83-8.24,3.83-6.58,0-11.82-4.43-11.82-13.49s5.23-13.47,11.82-13.47c4.61,0,6.94,1.9,8.04,3.53h.5v-13.17h5.91v36.05h-5.71ZM480.17,110.27c-4.38,0-7.31,3.15-7.31,8.99s2.93,9.01,7.31,9.01,7.29-3.15,7.29-9.01-2.93-8.99-7.29-8.99Z"/><path class="cls-2" d="M509.47,105.79c6.76,0,10.79,3.03,11.34,7.41v.75h-5.41c-.2-2.85-2.43-4.08-5.78-4.08s-5.31,1.25-5.31,3.33,1.8,2.88,4.08,3.28l4.53.73c5.18.85,8.79,2.65,8.79,7.49s-3.88,8.11-11.24,8.11-11.64-3.2-12.27-7.84v-.75h5.51c.28,3.03,3.05,4.51,6.76,4.51s5.63-1.43,5.63-3.63-1.85-2.88-4.61-3.35l-4.51-.73c-4.86-.8-8.26-3.03-8.26-7.59s4.03-7.64,10.74-7.64Z"/><path class="cls-2" d="M532.51,132.2h-5.88v-36.05h5.88v20.78h.5l11.39-10.59h6.48v.75l-11.24,10.36,11.44,13.99v.75h-6.33l-8.91-11.22-3.33,3.08v8.14Z"/><path class="cls-2" d="M554.62,113.2c.55-4.58,4.81-7.46,11.24-7.46s10.76,2.88,10.76,9.56v10.99c0,1.23.58,1.83,1.83,1.83h1.28v4.08h-2.63c-3.2,0-4.61-1.68-4.86-3.76h-.5c-1.3,2.2-3.71,4.26-8.84,4.26-5.68,0-9.69-3.08-9.69-7.89,0-5.16,3.96-7.31,8.96-7.81l5.93-.58c1.93-.18,2.93-.73,2.93-2.43,0-2.68-1.9-4.08-5.28-4.08s-5.61,1.38-5.73,4.03h-5.41v-.75ZM564.04,128.55c3.36,0,6.99-1.93,6.99-7.36v-1.6h-.5c-.78.45-1.58.7-3.53.9l-3.33.35c-2.83.28-4.63,1.33-4.63,3.78s1.95,3.93,5.01,3.93Z"/><path class="cls-2" d="M589.68,106.34v3.28h.5c1.15-1.95,3.63-3.83,8.24-3.83,6.58,0,11.82,4.41,11.82,13.47s-5.23,13.49-11.82,13.49c-4.61,0-6.93-1.9-8.01-3.53h-.5v12.99h-5.93v-35.87h5.71ZM596.96,128.27c4.38,0,7.28-3.15,7.28-9.01s-2.9-8.99-7.28-8.99-7.31,3.15-7.31,8.99,2.93,9.01,7.31,9.01Z"/><path class="cls-1" d="M81.23,93.57l-7.94,20.23c-.67,1.7-3.07,1.7-3.73,0l-8.94-22.76-.84-2.14c-1.05-2.67-3.16-4.78-5.83-5.83l-2.14-.84-22.76-8.94c-1.7-.67-1.7-3.07,0-3.73l22.76-8.94,2.14-.84c2.67-1.05,4.78-3.16,5.83-5.83l.84-2.14,8.94-22.76c.67-1.7,3.07-1.7,3.73,0l8.94,22.76.73,1.57c1.13,2.42,3.14,4.3,5.62,5.28l54.27,21.25v-7.44c0-4.97-3.05-9.44-7.67-11.25l-34.25-13.45c-2.67-1.05-4.78-3.16-5.83-5.83l-14.63-37.26c-1.1-2.81-3.81-4.65-6.83-4.65h-4.42c-3.02,0-5.72,1.85-6.83,4.65l-14.64,37.26c-1.05,2.67-3.16,4.78-5.83,5.83L4.65,62.38C1.85,63.48,0,66.19,0,69.21v4.42C0,76.65,1.85,79.36,4.65,80.46l37.26,14.63c2.67,1.05,4.78,3.16,5.83,5.83l14.64,37.26c1.1,2.81,3.81,4.65,6.83,4.65h4.42c3.02,0,5.73-1.85,6.83-4.65l15.3-38.96h0s-14.53-5.66-14.53-5.66h0Z"/><path class="cls-2" d="M81.23,93.57l-7.94,20.23c-.67,1.7-3.07,1.7-3.73,0l-8.94-22.76-.84-2.14c-1.05-2.67-3.16-4.78-5.83-5.83l-2.14-.84-22.76-8.94c-1.7-.67-1.7-3.07,0-3.73l22.76-8.94,2.14-.84c2.67-1.05,4.78-3.16,5.83-5.83l.84-2.14,8.94-22.76c.67-1.7,3.07-1.7,3.73,0l8.94,22.76.73,1.57c1.13,2.42,3.14,4.3,5.62,5.28l54.27,21.25v-7.44c0-4.97-3.05-9.44-7.67-11.25l-34.25-13.45c-2.67-1.05-4.78-3.16-5.83-5.83l-14.63-37.26c-1.1-2.81-3.81-4.65-6.83-4.65h-4.42c-3.02,0-5.72,1.85-6.83,4.65l-14.64,37.26c-1.05,2.67-3.16,4.78-5.83,5.83L4.65,62.38C1.85,63.48,0,66.19,0,69.21v4.42C0,76.65,1.85,79.36,4.65,80.46l37.26,14.63c2.67,1.05,4.78,3.16,5.83,5.83l14.64,37.26c1.1,2.81,3.81,4.65,6.83,4.65h4.42c3.02,0,5.73-1.85,6.83-4.65l15.3-38.96h0s-14.53-5.66-14.53-5.66h0Z"/><path class="cls-1" d="M133.03,49.27l7.94-20.23c.67-1.7,3.07-1.7,3.73,0l8.94,22.76.84,2.14c1.05,2.67,3.16,4.78,5.83,5.83l2.14.84,22.76,8.94c1.7.67,1.7,3.07,0,3.73l-22.76,8.94-2.14.84c-2.67,1.05-4.78,3.16-5.83,5.83l-.84,2.14-8.94,22.76c-.67,1.7-3.07,1.7-3.73,0l-8.94-22.76-.73-1.57c-1.13-2.42-3.14-4.3-5.62-5.28l-54.27-21.25v7.44c0,4.97,3.05,9.44,7.67,11.25l34.25,13.45c2.67,1.05,4.78,3.16,5.83,5.83l14.63,37.26c1.1,2.81,3.81,4.65,6.83,4.65h4.42c3.02,0,5.72-1.85,6.83-4.65l14.64-37.26c1.05-2.67,3.16-4.78,5.83-5.83l37.26-14.63c2.81-1.1,4.65-3.81,4.65-6.83v-4.42c0-3.02-1.85-5.72-4.65-6.83l-37.26-14.63c-2.67-1.05-4.78-3.16-5.83-5.83l-14.64-37.26c-1.1-2.81-3.81-4.65-6.83-4.65h-4.42c-3.02,0-5.73,1.85-6.83,4.65l-15.3,38.96h0s14.53,5.66,14.53,5.66h0Z"/><path class="cls-2" d="M133.03,49.27l7.94-20.23c.67-1.7,3.07-1.7,3.73,0l8.94,22.76.84,2.14c1.05,2.67,3.16,4.78,5.83,5.83l2.14.84,22.76,8.94c1.7.67,1.7,3.07,0,3.73l-22.76,8.94-2.14.84c-2.67,1.05-4.78,3.16-5.83,5.83l-.84,2.14-8.94,22.76c-.67,1.7-3.07,1.7-3.73,0l-8.94-22.76-.73-1.57c-1.13-2.42-3.14-4.3-5.62-5.28l-54.27-21.25v7.44c0,4.97,3.05,9.44,7.67,11.25l34.25,13.45c2.67,1.05,4.78,3.16,5.83,5.83l14.63,37.26c1.1,2.81,3.81,4.65,6.83,4.65h4.42c3.02,0,5.72-1.85,6.83-4.65l14.64-37.26c1.05-2.67,3.16-4.78,5.83-5.83l37.26-14.63c2.81-1.1,4.65-3.81,4.65-6.83v-4.42c0-3.02-1.85-5.72-4.65-6.83l-37.26-14.63c-2.67-1.05-4.78-3.16-5.83-5.83l-14.64-37.26c-1.1-2.81-3.81-4.65-6.83-4.65h-4.42c-3.02,0-5.73,1.85-6.83,4.65l-15.3,38.96h0s14.53,5.66,14.53,5.66h0Z"/></svg>